<mxfile host="app.diagrams.net" agent="Mozilla/5.0 (Windows NT 10.0; Win64; x64) AppleWebKit/537.36 (KHTML, like Gecko) Chrome/136.0.0.0 Safari/537.36" version="27.0.6">
  <diagram name="第 1 页" id="2ZYGfmaHRNHQHhe9TZDs">
    <mxGraphModel dx="776" dy="1488" grid="1" gridSize="10" guides="1" tooltips="1" connect="1" arrows="1" fold="1" page="1" pageScale="1" pageWidth="827" pageHeight="1169" math="0" shadow="0">
      <root>
        <mxCell id="0" />
        <mxCell id="1" parent="0" />
        <mxCell id="Kv515tewMocuSS8aXWMs-1" value="EXP" style="rounded=0;whiteSpace=wrap;html=1;" vertex="1" parent="1">
          <mxGeometry x="80" y="50" width="120" height="60" as="geometry" />
        </mxCell>
        <mxCell id="Kv515tewMocuSS8aXWMs-7" style="edgeStyle=orthogonalEdgeStyle;rounded=0;orthogonalLoop=1;jettySize=auto;html=1;exitX=0.5;exitY=0;exitDx=0;exitDy=0;entryX=0.5;entryY=1;entryDx=0;entryDy=0;" edge="1" parent="1" source="Kv515tewMocuSS8aXWMs-2" target="Kv515tewMocuSS8aXWMs-1">
          <mxGeometry relative="1" as="geometry" />
        </mxCell>
        <mxCell id="Kv515tewMocuSS8aXWMs-2" value="SIMPLE_EXP" style="rounded=0;whiteSpace=wrap;html=1;" vertex="1" parent="1">
          <mxGeometry x="80" y="160" width="120" height="60" as="geometry" />
        </mxCell>
        <mxCell id="Kv515tewMocuSS8aXWMs-9" style="edgeStyle=orthogonalEdgeStyle;rounded=0;orthogonalLoop=1;jettySize=auto;html=1;exitX=0.5;exitY=0;exitDx=0;exitDy=0;entryX=0.5;entryY=1;entryDx=0;entryDy=0;" edge="1" parent="1" source="Kv515tewMocuSS8aXWMs-5" target="Kv515tewMocuSS8aXWMs-2">
          <mxGeometry relative="1" as="geometry" />
        </mxCell>
        <mxCell id="Kv515tewMocuSS8aXWMs-5" value="TERM" style="rounded=0;whiteSpace=wrap;html=1;" vertex="1" parent="1">
          <mxGeometry x="80" y="280" width="120" height="60" as="geometry" />
        </mxCell>
        <mxCell id="Kv515tewMocuSS8aXWMs-11" style="edgeStyle=orthogonalEdgeStyle;rounded=0;orthogonalLoop=1;jettySize=auto;html=1;exitX=0.5;exitY=0;exitDx=0;exitDy=0;entryX=0.5;entryY=1;entryDx=0;entryDy=0;" edge="1" parent="1" source="Kv515tewMocuSS8aXWMs-6" target="Kv515tewMocuSS8aXWMs-5">
          <mxGeometry relative="1" as="geometry" />
        </mxCell>
        <mxCell id="Kv515tewMocuSS8aXWMs-6" value="FACTOR" style="rounded=0;whiteSpace=wrap;html=1;" vertex="1" parent="1">
          <mxGeometry x="80" y="400" width="120" height="60" as="geometry" />
        </mxCell>
        <mxCell id="Kv515tewMocuSS8aXWMs-8" value="处理 &amp;gt; =" style="text;html=1;align=center;verticalAlign=middle;resizable=0;points=[];autosize=1;strokeColor=none;fillColor=none;" vertex="1" parent="1">
          <mxGeometry x="155" y="118" width="70" height="30" as="geometry" />
        </mxCell>
        <mxCell id="Kv515tewMocuSS8aXWMs-10" value="处理 + -" style="text;html=1;align=center;verticalAlign=middle;resizable=0;points=[];autosize=1;strokeColor=none;fillColor=none;" vertex="1" parent="1">
          <mxGeometry x="145" y="228" width="70" height="30" as="geometry" />
        </mxCell>
        <mxCell id="Kv515tewMocuSS8aXWMs-12" value="处理 * /&amp;nbsp;" style="text;html=1;align=center;verticalAlign=middle;resizable=0;points=[];autosize=1;strokeColor=none;fillColor=none;" vertex="1" parent="1">
          <mxGeometry x="155" y="348" width="70" height="30" as="geometry" />
        </mxCell>
        <mxCell id="Kv515tewMocuSS8aXWMs-30" style="edgeStyle=orthogonalEdgeStyle;rounded=0;orthogonalLoop=1;jettySize=auto;html=1;exitX=0.5;exitY=0;exitDx=0;exitDy=0;" edge="1" parent="1" source="Kv515tewMocuSS8aXWMs-19" target="Kv515tewMocuSS8aXWMs-29">
          <mxGeometry relative="1" as="geometry" />
        </mxCell>
        <mxCell id="Kv515tewMocuSS8aXWMs-19" value="CMP_EXP" style="rounded=0;whiteSpace=wrap;html=1;" vertex="1" parent="1">
          <mxGeometry x="450" y="100" width="120" height="60" as="geometry" />
        </mxCell>
        <mxCell id="Kv515tewMocuSS8aXWMs-20" style="edgeStyle=orthogonalEdgeStyle;rounded=0;orthogonalLoop=1;jettySize=auto;html=1;exitX=0.5;exitY=0;exitDx=0;exitDy=0;entryX=0.5;entryY=1;entryDx=0;entryDy=0;" edge="1" parent="1" source="Kv515tewMocuSS8aXWMs-21" target="Kv515tewMocuSS8aXWMs-19">
          <mxGeometry relative="1" as="geometry" />
        </mxCell>
        <mxCell id="Kv515tewMocuSS8aXWMs-21" value="SIMPLE_EXP" style="rounded=0;whiteSpace=wrap;html=1;" vertex="1" parent="1">
          <mxGeometry x="450" y="210" width="120" height="60" as="geometry" />
        </mxCell>
        <mxCell id="Kv515tewMocuSS8aXWMs-22" style="edgeStyle=orthogonalEdgeStyle;rounded=0;orthogonalLoop=1;jettySize=auto;html=1;exitX=0.5;exitY=0;exitDx=0;exitDy=0;entryX=0.5;entryY=1;entryDx=0;entryDy=0;" edge="1" parent="1" source="Kv515tewMocuSS8aXWMs-23" target="Kv515tewMocuSS8aXWMs-21">
          <mxGeometry relative="1" as="geometry" />
        </mxCell>
        <mxCell id="Kv515tewMocuSS8aXWMs-23" value="TERM" style="rounded=0;whiteSpace=wrap;html=1;" vertex="1" parent="1">
          <mxGeometry x="450" y="330" width="120" height="60" as="geometry" />
        </mxCell>
        <mxCell id="Kv515tewMocuSS8aXWMs-24" style="edgeStyle=orthogonalEdgeStyle;rounded=0;orthogonalLoop=1;jettySize=auto;html=1;exitX=0.5;exitY=0;exitDx=0;exitDy=0;entryX=0.5;entryY=1;entryDx=0;entryDy=0;" edge="1" parent="1" source="Kv515tewMocuSS8aXWMs-25" target="Kv515tewMocuSS8aXWMs-23">
          <mxGeometry relative="1" as="geometry" />
        </mxCell>
        <mxCell id="Kv515tewMocuSS8aXWMs-25" value="FACTOR" style="rounded=0;whiteSpace=wrap;html=1;" vertex="1" parent="1">
          <mxGeometry x="450" y="450" width="120" height="60" as="geometry" />
        </mxCell>
        <mxCell id="Kv515tewMocuSS8aXWMs-26" value="处理 &amp;gt;=, &amp;lt;=, &amp;gt;, &amp;lt;, =" style="text;html=1;align=center;verticalAlign=middle;resizable=0;points=[];autosize=1;strokeColor=none;fillColor=none;" vertex="1" parent="1">
          <mxGeometry x="510" y="168" width="130" height="30" as="geometry" />
        </mxCell>
        <mxCell id="Kv515tewMocuSS8aXWMs-27" value="处理 + -" style="text;html=1;align=center;verticalAlign=middle;resizable=0;points=[];autosize=1;strokeColor=none;fillColor=none;" vertex="1" parent="1">
          <mxGeometry x="515" y="278" width="70" height="30" as="geometry" />
        </mxCell>
        <mxCell id="Kv515tewMocuSS8aXWMs-28" value="处理 * / ()&amp;nbsp;" style="text;html=1;align=center;verticalAlign=middle;resizable=0;points=[];autosize=1;strokeColor=none;fillColor=none;" vertex="1" parent="1">
          <mxGeometry x="520" y="398" width="80" height="30" as="geometry" />
        </mxCell>
        <mxCell id="Kv515tewMocuSS8aXWMs-29" value="EXP" style="rounded=0;whiteSpace=wrap;html=1;" vertex="1" parent="1">
          <mxGeometry x="450" y="-20" width="120" height="60" as="geometry" />
        </mxCell>
        <mxCell id="Kv515tewMocuSS8aXWMs-31" value="处理AND OR" style="text;html=1;align=center;verticalAlign=middle;resizable=0;points=[];autosize=1;strokeColor=none;fillColor=none;" vertex="1" parent="1">
          <mxGeometry x="515" y="50" width="90" height="30" as="geometry" />
        </mxCell>
        <mxCell id="Kv515tewMocuSS8aXWMs-32" value="处理NUM，ID，（）" style="text;html=1;align=center;verticalAlign=middle;resizable=0;points=[];autosize=1;strokeColor=none;fillColor=none;" vertex="1" parent="1">
          <mxGeometry x="115" y="458" width="130" height="30" as="geometry" />
        </mxCell>
        <mxCell id="Kv515tewMocuSS8aXWMs-33" value="处理NUM，ID，NOT" style="text;html=1;align=center;verticalAlign=middle;resizable=0;points=[];autosize=1;strokeColor=none;fillColor=none;" vertex="1" parent="1">
          <mxGeometry x="495" y="510" width="140" height="30" as="geometry" />
        </mxCell>
        <mxCell id="Kv515tewMocuSS8aXWMs-34" value="A" style="ellipse;whiteSpace=wrap;html=1;aspect=fixed;" vertex="1" parent="1">
          <mxGeometry x="65" y="770" width="60" height="60" as="geometry" />
        </mxCell>
        <mxCell id="Kv515tewMocuSS8aXWMs-38" style="edgeStyle=orthogonalEdgeStyle;rounded=0;orthogonalLoop=1;jettySize=auto;html=1;exitX=0.5;exitY=1;exitDx=0;exitDy=0;entryX=0.5;entryY=0;entryDx=0;entryDy=0;" edge="1" parent="1" source="Kv515tewMocuSS8aXWMs-35" target="Kv515tewMocuSS8aXWMs-34">
          <mxGeometry relative="1" as="geometry">
            <Array as="points">
              <mxPoint x="100" y="750" />
              <mxPoint x="100" y="770" />
            </Array>
          </mxGeometry>
        </mxCell>
        <mxCell id="Kv515tewMocuSS8aXWMs-39" style="edgeStyle=orthogonalEdgeStyle;rounded=0;orthogonalLoop=1;jettySize=auto;html=1;exitX=0.5;exitY=1;exitDx=0;exitDy=0;entryX=0.5;entryY=0;entryDx=0;entryDy=0;" edge="1" parent="1" source="Kv515tewMocuSS8aXWMs-35" target="Kv515tewMocuSS8aXWMs-36">
          <mxGeometry relative="1" as="geometry">
            <Array as="points">
              <mxPoint x="200" y="750" />
            </Array>
          </mxGeometry>
        </mxCell>
        <mxCell id="Kv515tewMocuSS8aXWMs-35" value="AND" style="ellipse;whiteSpace=wrap;html=1;aspect=fixed;" vertex="1" parent="1">
          <mxGeometry x="125" y="670" width="60" height="60" as="geometry" />
        </mxCell>
        <mxCell id="Kv515tewMocuSS8aXWMs-36" value="B" style="ellipse;whiteSpace=wrap;html=1;aspect=fixed;" vertex="1" parent="1">
          <mxGeometry x="170" y="770" width="60" height="60" as="geometry" />
        </mxCell>
        <mxCell id="Kv515tewMocuSS8aXWMs-40" value="C" style="ellipse;whiteSpace=wrap;html=1;aspect=fixed;" vertex="1" parent="1">
          <mxGeometry x="230" y="670" width="60" height="60" as="geometry" />
        </mxCell>
        <mxCell id="Kv515tewMocuSS8aXWMs-44" style="edgeStyle=orthogonalEdgeStyle;rounded=0;orthogonalLoop=1;jettySize=auto;html=1;exitX=0.5;exitY=1;exitDx=0;exitDy=0;entryX=0.5;entryY=0;entryDx=0;entryDy=0;" edge="1" parent="1" source="Kv515tewMocuSS8aXWMs-41" target="Kv515tewMocuSS8aXWMs-35">
          <mxGeometry relative="1" as="geometry" />
        </mxCell>
        <mxCell id="Kv515tewMocuSS8aXWMs-45" style="edgeStyle=orthogonalEdgeStyle;rounded=0;orthogonalLoop=1;jettySize=auto;html=1;exitX=0.5;exitY=1;exitDx=0;exitDy=0;entryX=0.5;entryY=0;entryDx=0;entryDy=0;" edge="1" parent="1" source="Kv515tewMocuSS8aXWMs-41" target="Kv515tewMocuSS8aXWMs-40">
          <mxGeometry relative="1" as="geometry">
            <Array as="points">
              <mxPoint x="215" y="650" />
              <mxPoint x="260" y="650" />
            </Array>
          </mxGeometry>
        </mxCell>
        <mxCell id="Kv515tewMocuSS8aXWMs-41" value="OR" style="ellipse;whiteSpace=wrap;html=1;aspect=fixed;" vertex="1" parent="1">
          <mxGeometry x="185" y="570" width="60" height="60" as="geometry" />
        </mxCell>
      </root>
    </mxGraphModel>
  </diagram>
</mxfile>
